<mxfile host="app.diagrams.net" modified="2023-08-24T16:39:04.685Z" agent="Mozilla/5.0 (Windows NT 10.0; Win64; x64) AppleWebKit/537.36 (KHTML, like Gecko) Chrome/115.0.0.0 Safari/537.36 OPR/101.0.0.0" etag="sxmFpMw1ftRkl8zHC3cO" version="21.6.9" type="github">
  <diagram id="prtHgNgQTEPvFCAcTncT" name="Page-1">
    <mxGraphModel dx="3395" dy="1838" grid="1" gridSize="10" guides="1" tooltips="1" connect="1" arrows="1" fold="1" page="1" pageScale="1" pageWidth="3300" pageHeight="1200" math="0" shadow="0">
      <root>
        <mxCell id="0" />
        <mxCell id="1" parent="0" />
        <mxCell id="JYMs62lEkPP5SCEeZYxe-6" value="BurgerStore" style="swimlane;childLayout=stackLayout;resizeParent=1;resizeParentMax=0;startSize=20;html=1;" parent="1" vertex="1">
          <mxGeometry x="20" y="20" width="600" height="1100" as="geometry" />
        </mxCell>
        <mxCell id="JYMs62lEkPP5SCEeZYxe-7" value="Frontend" style="swimlane;startSize=20;html=1;" parent="JYMs62lEkPP5SCEeZYxe-6" vertex="1">
          <mxGeometry y="20" width="200" height="1080" as="geometry" />
        </mxCell>
        <mxCell id="JYMs62lEkPP5SCEeZYxe-21" value="" style="edgeStyle=orthogonalEdgeStyle;rounded=0;orthogonalLoop=1;jettySize=auto;html=1;" parent="JYMs62lEkPP5SCEeZYxe-7" source="JYMs62lEkPP5SCEeZYxe-10" target="JYMs62lEkPP5SCEeZYxe-11" edge="1">
          <mxGeometry relative="1" as="geometry" />
        </mxCell>
        <mxCell id="JYMs62lEkPP5SCEeZYxe-10" value="start" style="ellipse;whiteSpace=wrap;html=1;aspect=fixed;fillColor=#008a00;fontColor=#ffffff;strokeColor=#005700;" parent="JYMs62lEkPP5SCEeZYxe-7" vertex="1">
          <mxGeometry x="72.5" y="50" width="60" height="60" as="geometry" />
        </mxCell>
        <mxCell id="JYMs62lEkPP5SCEeZYxe-49" value="" style="edgeStyle=orthogonalEdgeStyle;rounded=0;orthogonalLoop=1;jettySize=auto;html=1;" parent="JYMs62lEkPP5SCEeZYxe-7" source="JYMs62lEkPP5SCEeZYxe-11" target="JYMs62lEkPP5SCEeZYxe-48" edge="1">
          <mxGeometry relative="1" as="geometry" />
        </mxCell>
        <mxCell id="JYMs62lEkPP5SCEeZYxe-50" value="Invalid" style="edgeLabel;html=1;align=center;verticalAlign=middle;resizable=0;points=[];" parent="JYMs62lEkPP5SCEeZYxe-49" vertex="1" connectable="0">
          <mxGeometry x="-0.0349" y="-1" relative="1" as="geometry">
            <mxPoint as="offset" />
          </mxGeometry>
        </mxCell>
        <mxCell id="JYMs62lEkPP5SCEeZYxe-11" value="Get Request" style="rounded=1;whiteSpace=wrap;html=1;" parent="JYMs62lEkPP5SCEeZYxe-7" vertex="1">
          <mxGeometry x="30" y="160" width="145" height="80" as="geometry" />
        </mxCell>
        <mxCell id="JYMs62lEkPP5SCEeZYxe-48" value="Error" style="ellipse;whiteSpace=wrap;html=1;rounded=1;fillColor=#a20025;fontColor=#ffffff;strokeColor=#6F0000;" parent="JYMs62lEkPP5SCEeZYxe-7" vertex="1">
          <mxGeometry x="71.25" y="290" width="62.5" height="60" as="geometry" />
        </mxCell>
        <mxCell id="JYMs62lEkPP5SCEeZYxe-59" value="" style="edgeStyle=orthogonalEdgeStyle;rounded=0;orthogonalLoop=1;jettySize=auto;html=1;" parent="JYMs62lEkPP5SCEeZYxe-7" source="JYMs62lEkPP5SCEeZYxe-56" target="JYMs62lEkPP5SCEeZYxe-48" edge="1">
          <mxGeometry relative="1" as="geometry" />
        </mxCell>
        <mxCell id="JYMs62lEkPP5SCEeZYxe-56" value="No stores found!" style="rounded=1;whiteSpace=wrap;html=1;" parent="JYMs62lEkPP5SCEeZYxe-7" vertex="1">
          <mxGeometry x="32.5" y="400" width="140" height="80" as="geometry" />
        </mxCell>
        <mxCell id="JYMs62lEkPP5SCEeZYxe-143" value="" style="edgeStyle=orthogonalEdgeStyle;rounded=0;orthogonalLoop=1;jettySize=auto;html=1;" parent="JYMs62lEkPP5SCEeZYxe-7" source="JYMs62lEkPP5SCEeZYxe-140" target="JYMs62lEkPP5SCEeZYxe-142" edge="1">
          <mxGeometry relative="1" as="geometry" />
        </mxCell>
        <mxCell id="JYMs62lEkPP5SCEeZYxe-140" value="DIsplay stores with&lt;br&gt;burgers" style="rounded=1;whiteSpace=wrap;html=1;" parent="JYMs62lEkPP5SCEeZYxe-7" vertex="1">
          <mxGeometry x="35" y="840" width="140" height="80" as="geometry" />
        </mxCell>
        <mxCell id="JYMs62lEkPP5SCEeZYxe-142" value="end" style="ellipse;whiteSpace=wrap;html=1;rounded=1;fillColor=#008a00;fontColor=#ffffff;strokeColor=#005700;" parent="JYMs62lEkPP5SCEeZYxe-7" vertex="1">
          <mxGeometry x="72.5" y="1000" width="65" height="60" as="geometry" />
        </mxCell>
        <mxCell id="JYMs62lEkPP5SCEeZYxe-8" value="Backend" style="swimlane;startSize=20;html=1;" parent="JYMs62lEkPP5SCEeZYxe-6" vertex="1">
          <mxGeometry x="200" y="20" width="200" height="1080" as="geometry" />
        </mxCell>
        <mxCell id="JYMs62lEkPP5SCEeZYxe-35" style="edgeStyle=orthogonalEdgeStyle;rounded=0;orthogonalLoop=1;jettySize=auto;html=1;entryX=0.5;entryY=0;entryDx=0;entryDy=0;" parent="JYMs62lEkPP5SCEeZYxe-8" source="JYMs62lEkPP5SCEeZYxe-26" target="JYMs62lEkPP5SCEeZYxe-40" edge="1">
          <mxGeometry relative="1" as="geometry">
            <mxPoint x="100" y="220" as="targetPoint" />
          </mxGeometry>
        </mxCell>
        <mxCell id="JYMs62lEkPP5SCEeZYxe-39" value="Valid" style="edgeLabel;html=1;align=center;verticalAlign=middle;resizable=0;points=[];" parent="JYMs62lEkPP5SCEeZYxe-35" vertex="1" connectable="0">
          <mxGeometry x="0.0533" relative="1" as="geometry">
            <mxPoint as="offset" />
          </mxGeometry>
        </mxCell>
        <mxCell id="JYMs62lEkPP5SCEeZYxe-37" value="" style="edgeStyle=orthogonalEdgeStyle;rounded=0;orthogonalLoop=1;jettySize=auto;html=1;" parent="JYMs62lEkPP5SCEeZYxe-8" source="JYMs62lEkPP5SCEeZYxe-26" target="JYMs62lEkPP5SCEeZYxe-36" edge="1">
          <mxGeometry relative="1" as="geometry" />
        </mxCell>
        <mxCell id="JYMs62lEkPP5SCEeZYxe-38" value="Invalid" style="edgeLabel;html=1;align=center;verticalAlign=middle;resizable=0;points=[];" parent="JYMs62lEkPP5SCEeZYxe-37" vertex="1" connectable="0">
          <mxGeometry x="-0.2222" relative="1" as="geometry">
            <mxPoint as="offset" />
          </mxGeometry>
        </mxCell>
        <mxCell id="JYMs62lEkPP5SCEeZYxe-26" value="Validate Request" style="rounded=1;whiteSpace=wrap;html=1;" parent="JYMs62lEkPP5SCEeZYxe-8" vertex="1">
          <mxGeometry x="33.75" y="160" width="132.5" height="80" as="geometry" />
        </mxCell>
        <mxCell id="JYMs62lEkPP5SCEeZYxe-36" value="Error" style="ellipse;whiteSpace=wrap;html=1;rounded=1;fillColor=#a20025;fontColor=#ffffff;strokeColor=#6F0000;" parent="JYMs62lEkPP5SCEeZYxe-8" vertex="1">
          <mxGeometry x="68.75" y="50" width="62.5" height="60" as="geometry" />
        </mxCell>
        <mxCell id="JYMs62lEkPP5SCEeZYxe-40" value="Check for existing&lt;br&gt;stores" style="rounded=1;whiteSpace=wrap;html=1;" parent="JYMs62lEkPP5SCEeZYxe-8" vertex="1">
          <mxGeometry x="33.75" y="280" width="132.5" height="80" as="geometry" />
        </mxCell>
        <mxCell id="JYMs62lEkPP5SCEeZYxe-54" value="" style="edgeStyle=orthogonalEdgeStyle;rounded=0;orthogonalLoop=1;jettySize=auto;html=1;" parent="JYMs62lEkPP5SCEeZYxe-8" source="JYMs62lEkPP5SCEeZYxe-45" target="JYMs62lEkPP5SCEeZYxe-52" edge="1">
          <mxGeometry relative="1" as="geometry" />
        </mxCell>
        <mxCell id="JYMs62lEkPP5SCEeZYxe-55" value="True" style="edgeLabel;html=1;align=center;verticalAlign=middle;resizable=0;points=[];" parent="JYMs62lEkPP5SCEeZYxe-54" vertex="1" connectable="0">
          <mxGeometry x="-0.125" relative="1" as="geometry">
            <mxPoint as="offset" />
          </mxGeometry>
        </mxCell>
        <mxCell id="JYMs62lEkPP5SCEeZYxe-45" value="Exist?" style="rounded=1;whiteSpace=wrap;html=1;" parent="JYMs62lEkPP5SCEeZYxe-8" vertex="1">
          <mxGeometry x="30" y="400" width="140" height="80" as="geometry" />
        </mxCell>
        <mxCell id="JYMs62lEkPP5SCEeZYxe-52" value="Check for Pizzas in&amp;nbsp;&lt;br&gt;each store" style="rounded=1;whiteSpace=wrap;html=1;" parent="JYMs62lEkPP5SCEeZYxe-8" vertex="1">
          <mxGeometry x="30" y="520" width="140" height="80" as="geometry" />
        </mxCell>
        <mxCell id="JYMs62lEkPP5SCEeZYxe-132" value="Check for burgers in&amp;nbsp;&lt;br&gt;each store" style="rounded=1;whiteSpace=wrap;html=1;" parent="JYMs62lEkPP5SCEeZYxe-8" vertex="1">
          <mxGeometry x="33.75" y="840" width="140" height="80" as="geometry" />
        </mxCell>
        <mxCell id="JYMs62lEkPP5SCEeZYxe-9" value="Database" style="swimlane;startSize=20;html=1;" parent="JYMs62lEkPP5SCEeZYxe-6" vertex="1">
          <mxGeometry x="400" y="20" width="200" height="1080" as="geometry" />
        </mxCell>
        <mxCell id="JYMs62lEkPP5SCEeZYxe-42" value="Look for&amp;nbsp;&lt;br&gt;stores" style="rhombus;whiteSpace=wrap;html=1;" parent="JYMs62lEkPP5SCEeZYxe-9" vertex="1">
          <mxGeometry x="55" y="275" width="90" height="90" as="geometry" />
        </mxCell>
        <mxCell id="JYMs62lEkPP5SCEeZYxe-43" value="" style="edgeStyle=orthogonalEdgeStyle;rounded=0;orthogonalLoop=1;jettySize=auto;html=1;" parent="JYMs62lEkPP5SCEeZYxe-6" source="JYMs62lEkPP5SCEeZYxe-40" target="JYMs62lEkPP5SCEeZYxe-42" edge="1">
          <mxGeometry relative="1" as="geometry" />
        </mxCell>
        <mxCell id="JYMs62lEkPP5SCEeZYxe-46" value="" style="edgeStyle=orthogonalEdgeStyle;rounded=0;orthogonalLoop=1;jettySize=auto;html=1;" parent="JYMs62lEkPP5SCEeZYxe-6" source="JYMs62lEkPP5SCEeZYxe-11" target="JYMs62lEkPP5SCEeZYxe-26" edge="1">
          <mxGeometry relative="1" as="geometry" />
        </mxCell>
        <mxCell id="JYMs62lEkPP5SCEeZYxe-47" value="Valid" style="edgeLabel;html=1;align=center;verticalAlign=middle;resizable=0;points=[];" parent="JYMs62lEkPP5SCEeZYxe-46" vertex="1" connectable="0">
          <mxGeometry x="-0.0752" y="-1" relative="1" as="geometry">
            <mxPoint as="offset" />
          </mxGeometry>
        </mxCell>
        <mxCell id="JYMs62lEkPP5SCEeZYxe-51" style="edgeStyle=orthogonalEdgeStyle;rounded=0;orthogonalLoop=1;jettySize=auto;html=1;entryX=1;entryY=0.5;entryDx=0;entryDy=0;" parent="JYMs62lEkPP5SCEeZYxe-6" source="JYMs62lEkPP5SCEeZYxe-42" target="JYMs62lEkPP5SCEeZYxe-45" edge="1">
          <mxGeometry relative="1" as="geometry">
            <Array as="points">
              <mxPoint x="500" y="460" />
            </Array>
          </mxGeometry>
        </mxCell>
        <mxCell id="JYMs62lEkPP5SCEeZYxe-57" value="" style="edgeStyle=orthogonalEdgeStyle;rounded=0;orthogonalLoop=1;jettySize=auto;html=1;" parent="JYMs62lEkPP5SCEeZYxe-6" source="JYMs62lEkPP5SCEeZYxe-45" target="JYMs62lEkPP5SCEeZYxe-56" edge="1">
          <mxGeometry relative="1" as="geometry" />
        </mxCell>
        <mxCell id="JYMs62lEkPP5SCEeZYxe-58" value="False" style="edgeLabel;html=1;align=center;verticalAlign=middle;resizable=0;points=[];" parent="JYMs62lEkPP5SCEeZYxe-57" vertex="1" connectable="0">
          <mxGeometry x="-0.0444" relative="1" as="geometry">
            <mxPoint as="offset" />
          </mxGeometry>
        </mxCell>
        <mxCell id="JYMs62lEkPP5SCEeZYxe-141" value="" style="edgeStyle=orthogonalEdgeStyle;rounded=0;orthogonalLoop=1;jettySize=auto;html=1;" parent="JYMs62lEkPP5SCEeZYxe-6" source="JYMs62lEkPP5SCEeZYxe-132" target="JYMs62lEkPP5SCEeZYxe-140" edge="1">
          <mxGeometry relative="1" as="geometry" />
        </mxCell>
        <mxCell id="JYMs62lEkPP5SCEeZYxe-27" value="Burgers" style="swimlane;childLayout=stackLayout;resizeParent=1;resizeParentMax=0;startSize=20;html=1;" parent="1" vertex="1">
          <mxGeometry x="660" y="400" width="600" height="720" as="geometry" />
        </mxCell>
        <mxCell id="JYMs62lEkPP5SCEeZYxe-28" value="Frontend" style="swimlane;startSize=20;html=1;" parent="JYMs62lEkPP5SCEeZYxe-27" vertex="1">
          <mxGeometry y="20" width="200" height="700" as="geometry" />
        </mxCell>
        <mxCell id="JYMs62lEkPP5SCEeZYxe-64" value="" style="edgeStyle=orthogonalEdgeStyle;rounded=0;orthogonalLoop=1;jettySize=auto;html=1;" parent="JYMs62lEkPP5SCEeZYxe-28" source="JYMs62lEkPP5SCEeZYxe-31" target="JYMs62lEkPP5SCEeZYxe-63" edge="1">
          <mxGeometry relative="1" as="geometry" />
        </mxCell>
        <mxCell id="JYMs62lEkPP5SCEeZYxe-65" value="Invalid" style="edgeLabel;html=1;align=center;verticalAlign=middle;resizable=0;points=[];" parent="JYMs62lEkPP5SCEeZYxe-64" vertex="1" connectable="0">
          <mxGeometry x="-0.1521" y="-1" relative="1" as="geometry">
            <mxPoint as="offset" />
          </mxGeometry>
        </mxCell>
        <mxCell id="JYMs62lEkPP5SCEeZYxe-31" value="Get Request" style="rounded=1;whiteSpace=wrap;html=1;" parent="JYMs62lEkPP5SCEeZYxe-28" vertex="1">
          <mxGeometry x="30" y="140" width="140" height="80" as="geometry" />
        </mxCell>
        <mxCell id="JYMs62lEkPP5SCEeZYxe-63" value="Error" style="ellipse;whiteSpace=wrap;html=1;rounded=1;fillColor=#a20025;fontColor=#ffffff;strokeColor=#6F0000;" parent="JYMs62lEkPP5SCEeZYxe-28" vertex="1">
          <mxGeometry x="68.75" y="270" width="62.5" height="60" as="geometry" />
        </mxCell>
        <mxCell id="JYMs62lEkPP5SCEeZYxe-116" value="" style="edgeStyle=orthogonalEdgeStyle;rounded=0;orthogonalLoop=1;jettySize=auto;html=1;" parent="JYMs62lEkPP5SCEeZYxe-27" source="JYMs62lEkPP5SCEeZYxe-31" target="JYMs62lEkPP5SCEeZYxe-115" edge="1">
          <mxGeometry relative="1" as="geometry" />
        </mxCell>
        <mxCell id="JYMs62lEkPP5SCEeZYxe-117" value="Valid" style="edgeLabel;html=1;align=center;verticalAlign=middle;resizable=0;points=[];" parent="JYMs62lEkPP5SCEeZYxe-116" vertex="1" connectable="0">
          <mxGeometry x="-0.12" y="-1" relative="1" as="geometry">
            <mxPoint as="offset" />
          </mxGeometry>
        </mxCell>
        <mxCell id="JYMs62lEkPP5SCEeZYxe-32" value="Backend" style="swimlane;startSize=20;html=1;" parent="JYMs62lEkPP5SCEeZYxe-27" vertex="1">
          <mxGeometry x="200" y="20" width="200" height="700" as="geometry" />
        </mxCell>
        <mxCell id="JYMs62lEkPP5SCEeZYxe-126" value="" style="edgeStyle=orthogonalEdgeStyle;rounded=0;orthogonalLoop=1;jettySize=auto;html=1;" parent="JYMs62lEkPP5SCEeZYxe-32" source="JYMs62lEkPP5SCEeZYxe-115" target="JYMs62lEkPP5SCEeZYxe-125" edge="1">
          <mxGeometry relative="1" as="geometry" />
        </mxCell>
        <mxCell id="JYMs62lEkPP5SCEeZYxe-127" value="Valid" style="edgeLabel;html=1;align=center;verticalAlign=middle;resizable=0;points=[];" parent="JYMs62lEkPP5SCEeZYxe-126" vertex="1" connectable="0">
          <mxGeometry x="-0.18" relative="1" as="geometry">
            <mxPoint as="offset" />
          </mxGeometry>
        </mxCell>
        <mxCell id="JYMs62lEkPP5SCEeZYxe-115" value="Validate jwt token" style="rounded=1;whiteSpace=wrap;html=1;" parent="JYMs62lEkPP5SCEeZYxe-32" vertex="1">
          <mxGeometry x="30" y="140" width="140" height="80" as="geometry" />
        </mxCell>
        <mxCell id="JYMs62lEkPP5SCEeZYxe-122" value="Error" style="ellipse;whiteSpace=wrap;html=1;rounded=1;fillColor=#a20025;fontColor=#ffffff;strokeColor=#6F0000;" parent="JYMs62lEkPP5SCEeZYxe-32" vertex="1">
          <mxGeometry x="68.75" y="30" width="62.5" height="60" as="geometry" />
        </mxCell>
        <mxCell id="JYMs62lEkPP5SCEeZYxe-123" value="" style="edgeStyle=orthogonalEdgeStyle;rounded=0;orthogonalLoop=1;jettySize=auto;html=1;" parent="JYMs62lEkPP5SCEeZYxe-32" target="JYMs62lEkPP5SCEeZYxe-122" edge="1">
          <mxGeometry relative="1" as="geometry">
            <mxPoint x="100" y="140" as="sourcePoint" />
          </mxGeometry>
        </mxCell>
        <mxCell id="JYMs62lEkPP5SCEeZYxe-124" value="Invalid" style="edgeLabel;html=1;align=center;verticalAlign=middle;resizable=0;points=[];" parent="JYMs62lEkPP5SCEeZYxe-123" vertex="1" connectable="0">
          <mxGeometry x="-0.2222" relative="1" as="geometry">
            <mxPoint as="offset" />
          </mxGeometry>
        </mxCell>
        <mxCell id="JYMs62lEkPP5SCEeZYxe-125" value="Validate if authorization&lt;br&gt;level is correct" style="rounded=1;whiteSpace=wrap;html=1;" parent="JYMs62lEkPP5SCEeZYxe-32" vertex="1">
          <mxGeometry x="30" y="260" width="140" height="80" as="geometry" />
        </mxCell>
        <mxCell id="JYMs62lEkPP5SCEeZYxe-133" value="Exist?" style="rounded=1;whiteSpace=wrap;html=1;" parent="JYMs62lEkPP5SCEeZYxe-32" vertex="1">
          <mxGeometry x="30" y="380" width="140" height="80" as="geometry" />
        </mxCell>
        <mxCell id="JYMs62lEkPP5SCEeZYxe-34" value="Database" style="swimlane;startSize=20;html=1;" parent="JYMs62lEkPP5SCEeZYxe-27" vertex="1">
          <mxGeometry x="400" y="20" width="200" height="700" as="geometry" />
        </mxCell>
        <mxCell id="JYMs62lEkPP5SCEeZYxe-130" value="Look for&amp;nbsp;&lt;br&gt;burgers" style="rhombus;whiteSpace=wrap;html=1;" parent="JYMs62lEkPP5SCEeZYxe-34" vertex="1">
          <mxGeometry x="55" y="255" width="90" height="90" as="geometry" />
        </mxCell>
        <mxCell id="JYMs62lEkPP5SCEeZYxe-129" value="" style="edgeStyle=orthogonalEdgeStyle;rounded=0;orthogonalLoop=1;jettySize=auto;html=1;entryX=0;entryY=0.5;entryDx=0;entryDy=0;" parent="JYMs62lEkPP5SCEeZYxe-27" source="JYMs62lEkPP5SCEeZYxe-125" target="JYMs62lEkPP5SCEeZYxe-130" edge="1">
          <mxGeometry relative="1" as="geometry">
            <mxPoint x="430" y="320" as="targetPoint" />
          </mxGeometry>
        </mxCell>
        <mxCell id="JYMs62lEkPP5SCEeZYxe-144" value="True" style="edgeLabel;html=1;align=center;verticalAlign=middle;resizable=0;points=[];" parent="JYMs62lEkPP5SCEeZYxe-129" vertex="1" connectable="0">
          <mxGeometry x="0.0752" relative="1" as="geometry">
            <mxPoint as="offset" />
          </mxGeometry>
        </mxCell>
        <mxCell id="JYMs62lEkPP5SCEeZYxe-135" style="edgeStyle=orthogonalEdgeStyle;rounded=0;orthogonalLoop=1;jettySize=auto;html=1;entryX=0.5;entryY=1;entryDx=0;entryDy=0;" parent="JYMs62lEkPP5SCEeZYxe-27" source="JYMs62lEkPP5SCEeZYxe-133" target="JYMs62lEkPP5SCEeZYxe-63" edge="1">
          <mxGeometry relative="1" as="geometry" />
        </mxCell>
        <mxCell id="JYMs62lEkPP5SCEeZYxe-136" value="False" style="edgeLabel;html=1;align=center;verticalAlign=middle;resizable=0;points=[];" parent="JYMs62lEkPP5SCEeZYxe-135" vertex="1" connectable="0">
          <mxGeometry x="-0.1787" y="-1" relative="1" as="geometry">
            <mxPoint as="offset" />
          </mxGeometry>
        </mxCell>
        <mxCell id="JYMs62lEkPP5SCEeZYxe-139" style="edgeStyle=orthogonalEdgeStyle;rounded=0;orthogonalLoop=1;jettySize=auto;html=1;entryX=1;entryY=0.5;entryDx=0;entryDy=0;" parent="JYMs62lEkPP5SCEeZYxe-27" source="JYMs62lEkPP5SCEeZYxe-130" target="JYMs62lEkPP5SCEeZYxe-133" edge="1">
          <mxGeometry relative="1" as="geometry">
            <Array as="points">
              <mxPoint x="500" y="440" />
            </Array>
          </mxGeometry>
        </mxCell>
        <mxCell id="JYMs62lEkPP5SCEeZYxe-145" style="edgeStyle=orthogonalEdgeStyle;rounded=0;orthogonalLoop=1;jettySize=auto;html=1;entryX=1;entryY=0.5;entryDx=0;entryDy=0;" parent="JYMs62lEkPP5SCEeZYxe-27" source="JYMs62lEkPP5SCEeZYxe-125" target="JYMs62lEkPP5SCEeZYxe-63" edge="1">
          <mxGeometry relative="1" as="geometry" />
        </mxCell>
        <mxCell id="JYMs62lEkPP5SCEeZYxe-146" value="False" style="edgeLabel;html=1;align=center;verticalAlign=middle;resizable=0;points=[];" parent="JYMs62lEkPP5SCEeZYxe-145" vertex="1" connectable="0">
          <mxGeometry x="-0.0058" y="-1" relative="1" as="geometry">
            <mxPoint as="offset" />
          </mxGeometry>
        </mxCell>
        <mxCell id="JYMs62lEkPP5SCEeZYxe-62" style="edgeStyle=orthogonalEdgeStyle;rounded=0;orthogonalLoop=1;jettySize=auto;html=1;entryX=0;entryY=0.5;entryDx=0;entryDy=0;" parent="1" source="JYMs62lEkPP5SCEeZYxe-52" target="JYMs62lEkPP5SCEeZYxe-31" edge="1">
          <mxGeometry relative="1" as="geometry" />
        </mxCell>
        <mxCell id="JYMs62lEkPP5SCEeZYxe-70" value="Burger Login" style="swimlane;childLayout=stackLayout;resizeParent=1;resizeParentMax=0;horizontal=0;startSize=20;horizontalStack=0;html=1;" parent="1" vertex="1">
          <mxGeometry x="1420" y="20" width="1420" height="360" as="geometry">
            <mxRectangle x="120" y="120" width="40" height="60" as="alternateBounds" />
          </mxGeometry>
        </mxCell>
        <mxCell id="JYMs62lEkPP5SCEeZYxe-71" value="Frontend" style="swimlane;startSize=20;horizontal=0;html=1;" parent="JYMs62lEkPP5SCEeZYxe-70" vertex="1">
          <mxGeometry x="20" width="1400" height="120" as="geometry" />
        </mxCell>
        <mxCell id="JYMs62lEkPP5SCEeZYxe-72" value="" style="edgeStyle=orthogonalEdgeStyle;rounded=0;orthogonalLoop=1;jettySize=auto;html=1;" parent="JYMs62lEkPP5SCEeZYxe-71" source="JYMs62lEkPP5SCEeZYxe-73" target="JYMs62lEkPP5SCEeZYxe-74" edge="1">
          <mxGeometry relative="1" as="geometry" />
        </mxCell>
        <mxCell id="JYMs62lEkPP5SCEeZYxe-73" value="start" style="ellipse;whiteSpace=wrap;html=1;aspect=fixed;fillColor=#08E800;strokeColor=#82b366;" parent="JYMs62lEkPP5SCEeZYxe-71" vertex="1">
          <mxGeometry x="20" y="42.5" width="35" height="35" as="geometry" />
        </mxCell>
        <mxCell id="JYMs62lEkPP5SCEeZYxe-74" value="Input&lt;br&gt;Email/Password" style="rounded=1;whiteSpace=wrap;html=1;" parent="JYMs62lEkPP5SCEeZYxe-71" vertex="1">
          <mxGeometry x="120" y="35" width="100" height="50" as="geometry" />
        </mxCell>
        <mxCell id="JYMs62lEkPP5SCEeZYxe-75" value="" style="edgeStyle=orthogonalEdgeStyle;rounded=0;orthogonalLoop=1;jettySize=auto;html=1;" parent="JYMs62lEkPP5SCEeZYxe-71" source="JYMs62lEkPP5SCEeZYxe-76" target="JYMs62lEkPP5SCEeZYxe-77" edge="1">
          <mxGeometry relative="1" as="geometry" />
        </mxCell>
        <mxCell id="JYMs62lEkPP5SCEeZYxe-76" value="Invalid credentials" style="rounded=1;whiteSpace=wrap;html=1;" parent="JYMs62lEkPP5SCEeZYxe-71" vertex="1">
          <mxGeometry x="387.5" y="32.5" width="95" height="45" as="geometry" />
        </mxCell>
        <mxCell id="JYMs62lEkPP5SCEeZYxe-77" value="" style="ellipse;whiteSpace=wrap;html=1;aspect=fixed;fillColor=#FF0000;strokeColor=#82b366;" parent="JYMs62lEkPP5SCEeZYxe-71" vertex="1">
          <mxGeometry x="530" y="37.5" width="35" height="35" as="geometry" />
        </mxCell>
        <mxCell id="JYMs62lEkPP5SCEeZYxe-78" value="" style="edgeStyle=orthogonalEdgeStyle;rounded=0;orthogonalLoop=1;jettySize=auto;html=1;" parent="JYMs62lEkPP5SCEeZYxe-71" source="JYMs62lEkPP5SCEeZYxe-79" edge="1">
          <mxGeometry relative="1" as="geometry">
            <mxPoint x="1050" y="51.25" as="targetPoint" />
          </mxGeometry>
        </mxCell>
        <mxCell id="JYMs62lEkPP5SCEeZYxe-79" value="Invalid&lt;br&gt;combination" style="rounded=1;whiteSpace=wrap;html=1;" parent="JYMs62lEkPP5SCEeZYxe-71" vertex="1">
          <mxGeometry x="860" y="26.25" width="100" height="50" as="geometry" />
        </mxCell>
        <mxCell id="JYMs62lEkPP5SCEeZYxe-80" value="" style="ellipse;whiteSpace=wrap;html=1;aspect=fixed;fillColor=#FF0000;strokeColor=#82b366;" parent="JYMs62lEkPP5SCEeZYxe-71" vertex="1">
          <mxGeometry x="1050" y="35" width="35" height="35" as="geometry" />
        </mxCell>
        <mxCell id="JYMs62lEkPP5SCEeZYxe-81" value="" style="edgeStyle=orthogonalEdgeStyle;rounded=0;orthogonalLoop=1;jettySize=auto;html=1;" parent="JYMs62lEkPP5SCEeZYxe-71" source="JYMs62lEkPP5SCEeZYxe-82" target="JYMs62lEkPP5SCEeZYxe-83" edge="1">
          <mxGeometry relative="1" as="geometry" />
        </mxCell>
        <mxCell id="JYMs62lEkPP5SCEeZYxe-82" value="Access Granted&lt;br&gt;" style="rounded=1;whiteSpace=wrap;html=1;" parent="JYMs62lEkPP5SCEeZYxe-71" vertex="1">
          <mxGeometry x="1200" y="26.25" width="100" height="50" as="geometry" />
        </mxCell>
        <mxCell id="JYMs62lEkPP5SCEeZYxe-83" value="end" style="ellipse;whiteSpace=wrap;html=1;aspect=fixed;fillColor=#08E800;strokeColor=#82b366;" parent="JYMs62lEkPP5SCEeZYxe-71" vertex="1">
          <mxGeometry x="1350" y="33.75" width="35" height="35" as="geometry" />
        </mxCell>
        <mxCell id="JYMs62lEkPP5SCEeZYxe-84" value="Backend" style="swimlane;startSize=20;horizontal=0;html=1;" parent="JYMs62lEkPP5SCEeZYxe-70" vertex="1">
          <mxGeometry x="20" y="120" width="1400" height="120" as="geometry" />
        </mxCell>
        <mxCell id="JYMs62lEkPP5SCEeZYxe-85" style="edgeStyle=orthogonalEdgeStyle;rounded=0;orthogonalLoop=1;jettySize=auto;html=1;entryX=1;entryY=0.5;entryDx=0;entryDy=0;" parent="JYMs62lEkPP5SCEeZYxe-84" source="JYMs62lEkPP5SCEeZYxe-89" target="JYMs62lEkPP5SCEeZYxe-90" edge="1">
          <mxGeometry relative="1" as="geometry">
            <mxPoint x="70" y="60" as="targetPoint" />
          </mxGeometry>
        </mxCell>
        <mxCell id="JYMs62lEkPP5SCEeZYxe-86" value="Invalid" style="edgeLabel;html=1;align=center;verticalAlign=middle;resizable=0;points=[];" parent="JYMs62lEkPP5SCEeZYxe-85" vertex="1" connectable="0">
          <mxGeometry x="0.3207" y="-1" relative="1" as="geometry">
            <mxPoint x="13" y="1" as="offset" />
          </mxGeometry>
        </mxCell>
        <mxCell id="JYMs62lEkPP5SCEeZYxe-87" value="" style="edgeStyle=orthogonalEdgeStyle;rounded=0;orthogonalLoop=1;jettySize=auto;html=1;" parent="JYMs62lEkPP5SCEeZYxe-84" source="JYMs62lEkPP5SCEeZYxe-89" target="JYMs62lEkPP5SCEeZYxe-91" edge="1">
          <mxGeometry relative="1" as="geometry" />
        </mxCell>
        <mxCell id="JYMs62lEkPP5SCEeZYxe-88" value="Valid" style="edgeLabel;html=1;align=center;verticalAlign=middle;resizable=0;points=[];" parent="JYMs62lEkPP5SCEeZYxe-87" vertex="1" connectable="0">
          <mxGeometry x="-0.0437" y="1" relative="1" as="geometry">
            <mxPoint x="-4" y="1" as="offset" />
          </mxGeometry>
        </mxCell>
        <mxCell id="JYMs62lEkPP5SCEeZYxe-89" value="Validate the format of the request" style="rounded=1;whiteSpace=wrap;html=1;" parent="JYMs62lEkPP5SCEeZYxe-84" vertex="1">
          <mxGeometry x="120" y="35" width="100" height="50" as="geometry" />
        </mxCell>
        <mxCell id="JYMs62lEkPP5SCEeZYxe-90" value="" style="ellipse;whiteSpace=wrap;html=1;aspect=fixed;fillColor=#FF0000;strokeColor=#82b366;" parent="JYMs62lEkPP5SCEeZYxe-84" vertex="1">
          <mxGeometry x="20" y="43.75" width="35" height="35" as="geometry" />
        </mxCell>
        <mxCell id="JYMs62lEkPP5SCEeZYxe-91" value="Check if email exists&lt;br&gt;" style="rounded=1;whiteSpace=wrap;html=1;" parent="JYMs62lEkPP5SCEeZYxe-84" vertex="1">
          <mxGeometry x="270" y="33.75" width="90" height="52.5" as="geometry" />
        </mxCell>
        <mxCell id="JYMs62lEkPP5SCEeZYxe-92" value="Email doesn&#39;t exist" style="rounded=1;whiteSpace=wrap;html=1;" parent="JYMs62lEkPP5SCEeZYxe-84" vertex="1">
          <mxGeometry x="385" y="35" width="100" height="50" as="geometry" />
        </mxCell>
        <mxCell id="JYMs62lEkPP5SCEeZYxe-93" value="" style="edgeStyle=orthogonalEdgeStyle;rounded=0;orthogonalLoop=1;jettySize=auto;html=1;" parent="JYMs62lEkPP5SCEeZYxe-84" source="JYMs62lEkPP5SCEeZYxe-94" target="JYMs62lEkPP5SCEeZYxe-95" edge="1">
          <mxGeometry relative="1" as="geometry" />
        </mxCell>
        <mxCell id="JYMs62lEkPP5SCEeZYxe-94" value="Email exists&lt;br&gt;" style="rounded=1;whiteSpace=wrap;html=1;" parent="JYMs62lEkPP5SCEeZYxe-84" vertex="1">
          <mxGeometry x="540" y="36.25" width="100" height="50" as="geometry" />
        </mxCell>
        <mxCell id="JYMs62lEkPP5SCEeZYxe-95" value="Validate email/password&lt;br&gt;combination" style="rounded=1;whiteSpace=wrap;html=1;" parent="JYMs62lEkPP5SCEeZYxe-84" vertex="1">
          <mxGeometry x="700" y="36.25" width="100" height="50" as="geometry" />
        </mxCell>
        <mxCell id="JYMs62lEkPP5SCEeZYxe-96" value="Invalid&lt;br&gt;combination" style="rounded=1;whiteSpace=wrap;html=1;" parent="JYMs62lEkPP5SCEeZYxe-84" vertex="1">
          <mxGeometry x="860" y="36.25" width="100" height="50" as="geometry" />
        </mxCell>
        <mxCell id="JYMs62lEkPP5SCEeZYxe-97" value="" style="edgeStyle=orthogonalEdgeStyle;rounded=0;orthogonalLoop=1;jettySize=auto;html=1;" parent="JYMs62lEkPP5SCEeZYxe-84" source="JYMs62lEkPP5SCEeZYxe-98" target="JYMs62lEkPP5SCEeZYxe-99" edge="1">
          <mxGeometry relative="1" as="geometry" />
        </mxCell>
        <mxCell id="JYMs62lEkPP5SCEeZYxe-98" value="Valid credentials" style="rounded=1;whiteSpace=wrap;html=1;" parent="JYMs62lEkPP5SCEeZYxe-84" vertex="1">
          <mxGeometry x="1020" y="36.25" width="100" height="50" as="geometry" />
        </mxCell>
        <mxCell id="JYMs62lEkPP5SCEeZYxe-99" value="Create a token based on the credentials" style="rounded=1;whiteSpace=wrap;html=1;" parent="JYMs62lEkPP5SCEeZYxe-84" vertex="1">
          <mxGeometry x="1200" y="36.25" width="100" height="50" as="geometry" />
        </mxCell>
        <mxCell id="JYMs62lEkPP5SCEeZYxe-100" value="Database" style="swimlane;startSize=20;horizontal=0;html=1;" parent="JYMs62lEkPP5SCEeZYxe-70" vertex="1">
          <mxGeometry x="20" y="240" width="1400" height="120" as="geometry" />
        </mxCell>
        <mxCell id="JYMs62lEkPP5SCEeZYxe-101" style="edgeStyle=orthogonalEdgeStyle;rounded=0;orthogonalLoop=1;jettySize=auto;html=1;" parent="JYMs62lEkPP5SCEeZYxe-100" source="JYMs62lEkPP5SCEeZYxe-105" edge="1">
          <mxGeometry relative="1" as="geometry">
            <mxPoint x="440" y="-30" as="targetPoint" />
          </mxGeometry>
        </mxCell>
        <mxCell id="JYMs62lEkPP5SCEeZYxe-102" value="False" style="edgeLabel;html=1;align=center;verticalAlign=middle;resizable=0;points=[];" parent="JYMs62lEkPP5SCEeZYxe-101" vertex="1" connectable="0">
          <mxGeometry x="0.4144" y="3" relative="1" as="geometry">
            <mxPoint as="offset" />
          </mxGeometry>
        </mxCell>
        <mxCell id="JYMs62lEkPP5SCEeZYxe-103" style="edgeStyle=orthogonalEdgeStyle;rounded=0;orthogonalLoop=1;jettySize=auto;html=1;" parent="JYMs62lEkPP5SCEeZYxe-100" source="JYMs62lEkPP5SCEeZYxe-105" edge="1">
          <mxGeometry relative="1" as="geometry">
            <mxPoint x="590" y="-30" as="targetPoint" />
          </mxGeometry>
        </mxCell>
        <mxCell id="JYMs62lEkPP5SCEeZYxe-104" value="True" style="edgeLabel;html=1;align=center;verticalAlign=middle;resizable=0;points=[];" parent="JYMs62lEkPP5SCEeZYxe-103" vertex="1" connectable="0">
          <mxGeometry x="0.6611" y="-2" relative="1" as="geometry">
            <mxPoint as="offset" />
          </mxGeometry>
        </mxCell>
        <mxCell id="JYMs62lEkPP5SCEeZYxe-105" value="Look for&lt;br&gt;&amp;nbsp;email" style="rhombus;whiteSpace=wrap;html=1;" parent="JYMs62lEkPP5SCEeZYxe-100" vertex="1">
          <mxGeometry x="275" y="20" width="80" height="80" as="geometry" />
        </mxCell>
        <mxCell id="JYMs62lEkPP5SCEeZYxe-106" style="edgeStyle=orthogonalEdgeStyle;rounded=0;orthogonalLoop=1;jettySize=auto;html=1;" parent="JYMs62lEkPP5SCEeZYxe-100" source="JYMs62lEkPP5SCEeZYxe-107" edge="1">
          <mxGeometry relative="1" as="geometry">
            <mxPoint x="910" y="-30" as="targetPoint" />
          </mxGeometry>
        </mxCell>
        <mxCell id="JYMs62lEkPP5SCEeZYxe-193" value="Invalid" style="edgeLabel;html=1;align=center;verticalAlign=middle;resizable=0;points=[];" parent="JYMs62lEkPP5SCEeZYxe-106" vertex="1" connectable="0">
          <mxGeometry x="0.5011" y="-3" relative="1" as="geometry">
            <mxPoint as="offset" />
          </mxGeometry>
        </mxCell>
        <mxCell id="JYMs62lEkPP5SCEeZYxe-107" value="Validate&lt;br&gt;combination" style="rhombus;whiteSpace=wrap;html=1;" parent="JYMs62lEkPP5SCEeZYxe-100" vertex="1">
          <mxGeometry x="710" y="10" width="80" height="80" as="geometry" />
        </mxCell>
        <mxCell id="JYMs62lEkPP5SCEeZYxe-108" style="edgeStyle=orthogonalEdgeStyle;rounded=0;orthogonalLoop=1;jettySize=auto;html=1;entryX=0.5;entryY=0;entryDx=0;entryDy=0;" parent="JYMs62lEkPP5SCEeZYxe-70" source="JYMs62lEkPP5SCEeZYxe-74" target="JYMs62lEkPP5SCEeZYxe-89" edge="1">
          <mxGeometry relative="1" as="geometry" />
        </mxCell>
        <mxCell id="JYMs62lEkPP5SCEeZYxe-109" value="" style="edgeStyle=orthogonalEdgeStyle;rounded=0;orthogonalLoop=1;jettySize=auto;html=1;" parent="JYMs62lEkPP5SCEeZYxe-70" source="JYMs62lEkPP5SCEeZYxe-91" target="JYMs62lEkPP5SCEeZYxe-105" edge="1">
          <mxGeometry relative="1" as="geometry" />
        </mxCell>
        <mxCell id="JYMs62lEkPP5SCEeZYxe-110" value="" style="edgeStyle=orthogonalEdgeStyle;rounded=0;orthogonalLoop=1;jettySize=auto;html=1;" parent="JYMs62lEkPP5SCEeZYxe-70" source="JYMs62lEkPP5SCEeZYxe-92" target="JYMs62lEkPP5SCEeZYxe-76" edge="1">
          <mxGeometry relative="1" as="geometry" />
        </mxCell>
        <mxCell id="JYMs62lEkPP5SCEeZYxe-111" value="" style="edgeStyle=orthogonalEdgeStyle;rounded=0;orthogonalLoop=1;jettySize=auto;html=1;" parent="JYMs62lEkPP5SCEeZYxe-70" source="JYMs62lEkPP5SCEeZYxe-95" target="JYMs62lEkPP5SCEeZYxe-107" edge="1">
          <mxGeometry relative="1" as="geometry" />
        </mxCell>
        <mxCell id="JYMs62lEkPP5SCEeZYxe-112" style="edgeStyle=orthogonalEdgeStyle;rounded=0;orthogonalLoop=1;jettySize=auto;html=1;" parent="JYMs62lEkPP5SCEeZYxe-70" source="JYMs62lEkPP5SCEeZYxe-107" target="JYMs62lEkPP5SCEeZYxe-98" edge="1">
          <mxGeometry relative="1" as="geometry" />
        </mxCell>
        <mxCell id="JYMs62lEkPP5SCEeZYxe-194" value="Valid" style="edgeLabel;html=1;align=center;verticalAlign=middle;resizable=0;points=[];" parent="JYMs62lEkPP5SCEeZYxe-112" vertex="1" connectable="0">
          <mxGeometry x="0.732" relative="1" as="geometry">
            <mxPoint as="offset" />
          </mxGeometry>
        </mxCell>
        <mxCell id="JYMs62lEkPP5SCEeZYxe-113" value="" style="edgeStyle=orthogonalEdgeStyle;rounded=0;orthogonalLoop=1;jettySize=auto;html=1;" parent="JYMs62lEkPP5SCEeZYxe-70" source="JYMs62lEkPP5SCEeZYxe-96" target="JYMs62lEkPP5SCEeZYxe-79" edge="1">
          <mxGeometry relative="1" as="geometry" />
        </mxCell>
        <mxCell id="JYMs62lEkPP5SCEeZYxe-114" value="" style="edgeStyle=orthogonalEdgeStyle;rounded=0;orthogonalLoop=1;jettySize=auto;html=1;" parent="JYMs62lEkPP5SCEeZYxe-70" source="JYMs62lEkPP5SCEeZYxe-99" target="JYMs62lEkPP5SCEeZYxe-82" edge="1">
          <mxGeometry relative="1" as="geometry" />
        </mxCell>
        <mxCell id="JYMs62lEkPP5SCEeZYxe-137" style="edgeStyle=orthogonalEdgeStyle;rounded=0;orthogonalLoop=1;jettySize=auto;html=1;entryX=1;entryY=0.5;entryDx=0;entryDy=0;" parent="1" source="JYMs62lEkPP5SCEeZYxe-133" target="JYMs62lEkPP5SCEeZYxe-132" edge="1">
          <mxGeometry relative="1" as="geometry">
            <mxPoint x="959.9999999999995" y="940" as="targetPoint" />
            <Array as="points">
              <mxPoint x="960" y="920" />
            </Array>
          </mxGeometry>
        </mxCell>
        <mxCell id="JYMs62lEkPP5SCEeZYxe-138" value="True" style="edgeLabel;html=1;align=center;verticalAlign=middle;resizable=0;points=[];" parent="JYMs62lEkPP5SCEeZYxe-137" vertex="1" connectable="0">
          <mxGeometry x="-0.9336" y="-1" relative="1" as="geometry">
            <mxPoint as="offset" />
          </mxGeometry>
        </mxCell>
        <mxCell id="JYMs62lEkPP5SCEeZYxe-147" value="Burger Register" style="swimlane;childLayout=stackLayout;resizeParent=1;resizeParentMax=0;horizontal=0;startSize=20;horizontalStack=0;html=1;" parent="1" vertex="1">
          <mxGeometry x="1420" y="430" width="1420" height="360" as="geometry">
            <mxRectangle x="120" y="120" width="40" height="60" as="alternateBounds" />
          </mxGeometry>
        </mxCell>
        <mxCell id="JYMs62lEkPP5SCEeZYxe-148" value="Frontend" style="swimlane;startSize=20;horizontal=0;html=1;" parent="JYMs62lEkPP5SCEeZYxe-147" vertex="1">
          <mxGeometry x="20" width="1400" height="120" as="geometry" />
        </mxCell>
        <mxCell id="JYMs62lEkPP5SCEeZYxe-149" value="" style="edgeStyle=orthogonalEdgeStyle;rounded=0;orthogonalLoop=1;jettySize=auto;html=1;" parent="JYMs62lEkPP5SCEeZYxe-148" source="JYMs62lEkPP5SCEeZYxe-150" target="JYMs62lEkPP5SCEeZYxe-151" edge="1">
          <mxGeometry relative="1" as="geometry" />
        </mxCell>
        <mxCell id="JYMs62lEkPP5SCEeZYxe-150" value="start" style="ellipse;whiteSpace=wrap;html=1;aspect=fixed;fillColor=#08E800;strokeColor=#82b366;" parent="JYMs62lEkPP5SCEeZYxe-148" vertex="1">
          <mxGeometry x="20" y="42.5" width="35" height="35" as="geometry" />
        </mxCell>
        <mxCell id="JYMs62lEkPP5SCEeZYxe-151" value="Input credentials" style="rounded=1;whiteSpace=wrap;html=1;" parent="JYMs62lEkPP5SCEeZYxe-148" vertex="1">
          <mxGeometry x="120" y="35" width="100" height="50" as="geometry" />
        </mxCell>
        <mxCell id="JYMs62lEkPP5SCEeZYxe-152" value="" style="edgeStyle=orthogonalEdgeStyle;rounded=0;orthogonalLoop=1;jettySize=auto;html=1;" parent="JYMs62lEkPP5SCEeZYxe-148" source="JYMs62lEkPP5SCEeZYxe-153" target="JYMs62lEkPP5SCEeZYxe-154" edge="1">
          <mxGeometry relative="1" as="geometry" />
        </mxCell>
        <mxCell id="JYMs62lEkPP5SCEeZYxe-153" value="Existing user" style="rounded=1;whiteSpace=wrap;html=1;" parent="JYMs62lEkPP5SCEeZYxe-148" vertex="1">
          <mxGeometry x="387.5" y="32.5" width="95" height="45" as="geometry" />
        </mxCell>
        <mxCell id="JYMs62lEkPP5SCEeZYxe-154" value="" style="ellipse;whiteSpace=wrap;html=1;aspect=fixed;fillColor=#FF0000;strokeColor=#82b366;" parent="JYMs62lEkPP5SCEeZYxe-148" vertex="1">
          <mxGeometry x="530" y="37.5" width="35" height="35" as="geometry" />
        </mxCell>
        <mxCell id="JYMs62lEkPP5SCEeZYxe-155" value="" style="edgeStyle=orthogonalEdgeStyle;rounded=0;orthogonalLoop=1;jettySize=auto;html=1;" parent="JYMs62lEkPP5SCEeZYxe-148" source="JYMs62lEkPP5SCEeZYxe-156" edge="1">
          <mxGeometry relative="1" as="geometry">
            <mxPoint x="1050" y="51.25" as="targetPoint" />
          </mxGeometry>
        </mxCell>
        <mxCell id="JYMs62lEkPP5SCEeZYxe-156" value="Something went wrong" style="rounded=1;whiteSpace=wrap;html=1;" parent="JYMs62lEkPP5SCEeZYxe-148" vertex="1">
          <mxGeometry x="860" y="26.25" width="100" height="50" as="geometry" />
        </mxCell>
        <mxCell id="JYMs62lEkPP5SCEeZYxe-157" value="" style="ellipse;whiteSpace=wrap;html=1;aspect=fixed;fillColor=#FF0000;strokeColor=#82b366;" parent="JYMs62lEkPP5SCEeZYxe-148" vertex="1">
          <mxGeometry x="1050" y="35" width="35" height="35" as="geometry" />
        </mxCell>
        <mxCell id="JYMs62lEkPP5SCEeZYxe-158" value="" style="edgeStyle=orthogonalEdgeStyle;rounded=0;orthogonalLoop=1;jettySize=auto;html=1;" parent="JYMs62lEkPP5SCEeZYxe-148" source="JYMs62lEkPP5SCEeZYxe-159" target="JYMs62lEkPP5SCEeZYxe-160" edge="1">
          <mxGeometry relative="1" as="geometry" />
        </mxCell>
        <mxCell id="JYMs62lEkPP5SCEeZYxe-159" value="Access Granted&lt;br&gt;" style="rounded=1;whiteSpace=wrap;html=1;" parent="JYMs62lEkPP5SCEeZYxe-148" vertex="1">
          <mxGeometry x="1200" y="26.25" width="100" height="50" as="geometry" />
        </mxCell>
        <mxCell id="JYMs62lEkPP5SCEeZYxe-160" value="end&amp;nbsp;" style="ellipse;whiteSpace=wrap;html=1;aspect=fixed;fillColor=#08E800;strokeColor=#82b366;" parent="JYMs62lEkPP5SCEeZYxe-148" vertex="1">
          <mxGeometry x="1350" y="33.75" width="35" height="35" as="geometry" />
        </mxCell>
        <mxCell id="JYMs62lEkPP5SCEeZYxe-161" value="Backend" style="swimlane;startSize=20;horizontal=0;html=1;" parent="JYMs62lEkPP5SCEeZYxe-147" vertex="1">
          <mxGeometry x="20" y="120" width="1400" height="120" as="geometry" />
        </mxCell>
        <mxCell id="JYMs62lEkPP5SCEeZYxe-162" style="edgeStyle=orthogonalEdgeStyle;rounded=0;orthogonalLoop=1;jettySize=auto;html=1;entryX=1;entryY=0.5;entryDx=0;entryDy=0;" parent="JYMs62lEkPP5SCEeZYxe-161" source="JYMs62lEkPP5SCEeZYxe-166" target="JYMs62lEkPP5SCEeZYxe-167" edge="1">
          <mxGeometry relative="1" as="geometry">
            <mxPoint x="70" y="60" as="targetPoint" />
          </mxGeometry>
        </mxCell>
        <mxCell id="JYMs62lEkPP5SCEeZYxe-163" value="Invalid" style="edgeLabel;html=1;align=center;verticalAlign=middle;resizable=0;points=[];" parent="JYMs62lEkPP5SCEeZYxe-162" vertex="1" connectable="0">
          <mxGeometry x="0.3207" y="-1" relative="1" as="geometry">
            <mxPoint x="13" y="1" as="offset" />
          </mxGeometry>
        </mxCell>
        <mxCell id="JYMs62lEkPP5SCEeZYxe-164" value="" style="edgeStyle=orthogonalEdgeStyle;rounded=0;orthogonalLoop=1;jettySize=auto;html=1;" parent="JYMs62lEkPP5SCEeZYxe-161" source="JYMs62lEkPP5SCEeZYxe-166" target="JYMs62lEkPP5SCEeZYxe-168" edge="1">
          <mxGeometry relative="1" as="geometry" />
        </mxCell>
        <mxCell id="JYMs62lEkPP5SCEeZYxe-165" value="Valid" style="edgeLabel;html=1;align=center;verticalAlign=middle;resizable=0;points=[];" parent="JYMs62lEkPP5SCEeZYxe-164" vertex="1" connectable="0">
          <mxGeometry x="-0.0437" y="1" relative="1" as="geometry">
            <mxPoint x="-4" y="1" as="offset" />
          </mxGeometry>
        </mxCell>
        <mxCell id="JYMs62lEkPP5SCEeZYxe-166" value="Validate the format of the request" style="rounded=1;whiteSpace=wrap;html=1;" parent="JYMs62lEkPP5SCEeZYxe-161" vertex="1">
          <mxGeometry x="120" y="35" width="100" height="50" as="geometry" />
        </mxCell>
        <mxCell id="JYMs62lEkPP5SCEeZYxe-167" value="" style="ellipse;whiteSpace=wrap;html=1;aspect=fixed;fillColor=#FF0000;strokeColor=#82b366;" parent="JYMs62lEkPP5SCEeZYxe-161" vertex="1">
          <mxGeometry x="20" y="43.75" width="35" height="35" as="geometry" />
        </mxCell>
        <mxCell id="JYMs62lEkPP5SCEeZYxe-168" value="Check if user exists" style="rounded=1;whiteSpace=wrap;html=1;" parent="JYMs62lEkPP5SCEeZYxe-161" vertex="1">
          <mxGeometry x="270" y="33.75" width="90" height="52.5" as="geometry" />
        </mxCell>
        <mxCell id="JYMs62lEkPP5SCEeZYxe-169" value="User exists" style="rounded=1;whiteSpace=wrap;html=1;" parent="JYMs62lEkPP5SCEeZYxe-161" vertex="1">
          <mxGeometry x="385" y="35" width="100" height="50" as="geometry" />
        </mxCell>
        <mxCell id="JYMs62lEkPP5SCEeZYxe-170" value="" style="edgeStyle=orthogonalEdgeStyle;rounded=0;orthogonalLoop=1;jettySize=auto;html=1;" parent="JYMs62lEkPP5SCEeZYxe-161" source="JYMs62lEkPP5SCEeZYxe-171" target="JYMs62lEkPP5SCEeZYxe-172" edge="1">
          <mxGeometry relative="1" as="geometry" />
        </mxCell>
        <mxCell id="JYMs62lEkPP5SCEeZYxe-171" value="User doesn&#39;t&lt;br&gt;exist" style="rounded=1;whiteSpace=wrap;html=1;" parent="JYMs62lEkPP5SCEeZYxe-161" vertex="1">
          <mxGeometry x="540" y="36.25" width="100" height="50" as="geometry" />
        </mxCell>
        <mxCell id="JYMs62lEkPP5SCEeZYxe-172" value="Create user" style="rounded=1;whiteSpace=wrap;html=1;" parent="JYMs62lEkPP5SCEeZYxe-161" vertex="1">
          <mxGeometry x="700" y="36.25" width="100" height="50" as="geometry" />
        </mxCell>
        <mxCell id="JYMs62lEkPP5SCEeZYxe-173" value="Something went&amp;nbsp;&lt;br&gt;wrong" style="rounded=1;whiteSpace=wrap;html=1;" parent="JYMs62lEkPP5SCEeZYxe-161" vertex="1">
          <mxGeometry x="860" y="36.25" width="100" height="50" as="geometry" />
        </mxCell>
        <mxCell id="JYMs62lEkPP5SCEeZYxe-176" value="Create a token based on the credentials" style="rounded=1;whiteSpace=wrap;html=1;" parent="JYMs62lEkPP5SCEeZYxe-161" vertex="1">
          <mxGeometry x="1200" y="36.25" width="100" height="50" as="geometry" />
        </mxCell>
        <mxCell id="JYMs62lEkPP5SCEeZYxe-177" value="Database" style="swimlane;startSize=20;horizontal=0;html=1;" parent="JYMs62lEkPP5SCEeZYxe-147" vertex="1">
          <mxGeometry x="20" y="240" width="1400" height="120" as="geometry" />
        </mxCell>
        <mxCell id="JYMs62lEkPP5SCEeZYxe-178" style="edgeStyle=orthogonalEdgeStyle;rounded=0;orthogonalLoop=1;jettySize=auto;html=1;" parent="JYMs62lEkPP5SCEeZYxe-177" source="JYMs62lEkPP5SCEeZYxe-182" edge="1">
          <mxGeometry relative="1" as="geometry">
            <mxPoint x="440" y="-30" as="targetPoint" />
          </mxGeometry>
        </mxCell>
        <mxCell id="JYMs62lEkPP5SCEeZYxe-179" value="True" style="edgeLabel;html=1;align=center;verticalAlign=middle;resizable=0;points=[];" parent="JYMs62lEkPP5SCEeZYxe-178" vertex="1" connectable="0">
          <mxGeometry x="0.4144" y="3" relative="1" as="geometry">
            <mxPoint as="offset" />
          </mxGeometry>
        </mxCell>
        <mxCell id="JYMs62lEkPP5SCEeZYxe-180" style="edgeStyle=orthogonalEdgeStyle;rounded=0;orthogonalLoop=1;jettySize=auto;html=1;" parent="JYMs62lEkPP5SCEeZYxe-177" source="JYMs62lEkPP5SCEeZYxe-182" edge="1">
          <mxGeometry relative="1" as="geometry">
            <mxPoint x="590" y="-30" as="targetPoint" />
          </mxGeometry>
        </mxCell>
        <mxCell id="JYMs62lEkPP5SCEeZYxe-181" value="False" style="edgeLabel;html=1;align=center;verticalAlign=middle;resizable=0;points=[];" parent="JYMs62lEkPP5SCEeZYxe-180" vertex="1" connectable="0">
          <mxGeometry x="0.6611" y="-2" relative="1" as="geometry">
            <mxPoint as="offset" />
          </mxGeometry>
        </mxCell>
        <mxCell id="JYMs62lEkPP5SCEeZYxe-182" value="Look for&lt;br&gt;&amp;nbsp;user" style="rhombus;whiteSpace=wrap;html=1;" parent="JYMs62lEkPP5SCEeZYxe-177" vertex="1">
          <mxGeometry x="275" y="20" width="80" height="80" as="geometry" />
        </mxCell>
        <mxCell id="JYMs62lEkPP5SCEeZYxe-183" style="edgeStyle=orthogonalEdgeStyle;rounded=0;orthogonalLoop=1;jettySize=auto;html=1;" parent="JYMs62lEkPP5SCEeZYxe-177" source="JYMs62lEkPP5SCEeZYxe-184" edge="1">
          <mxGeometry relative="1" as="geometry">
            <mxPoint x="910" y="-30" as="targetPoint" />
          </mxGeometry>
        </mxCell>
        <mxCell id="JYMs62lEkPP5SCEeZYxe-192" value="False" style="edgeLabel;html=1;align=center;verticalAlign=middle;resizable=0;points=[];" parent="JYMs62lEkPP5SCEeZYxe-183" vertex="1" connectable="0">
          <mxGeometry x="0.561" y="-2" relative="1" as="geometry">
            <mxPoint as="offset" />
          </mxGeometry>
        </mxCell>
        <mxCell id="JYMs62lEkPP5SCEeZYxe-184" value="Save user" style="rhombus;whiteSpace=wrap;html=1;" parent="JYMs62lEkPP5SCEeZYxe-177" vertex="1">
          <mxGeometry x="710" y="10" width="80" height="80" as="geometry" />
        </mxCell>
        <mxCell id="JYMs62lEkPP5SCEeZYxe-185" style="edgeStyle=orthogonalEdgeStyle;rounded=0;orthogonalLoop=1;jettySize=auto;html=1;entryX=0.5;entryY=0;entryDx=0;entryDy=0;" parent="JYMs62lEkPP5SCEeZYxe-147" source="JYMs62lEkPP5SCEeZYxe-151" target="JYMs62lEkPP5SCEeZYxe-166" edge="1">
          <mxGeometry relative="1" as="geometry" />
        </mxCell>
        <mxCell id="JYMs62lEkPP5SCEeZYxe-186" value="" style="edgeStyle=orthogonalEdgeStyle;rounded=0;orthogonalLoop=1;jettySize=auto;html=1;" parent="JYMs62lEkPP5SCEeZYxe-147" source="JYMs62lEkPP5SCEeZYxe-168" target="JYMs62lEkPP5SCEeZYxe-182" edge="1">
          <mxGeometry relative="1" as="geometry" />
        </mxCell>
        <mxCell id="JYMs62lEkPP5SCEeZYxe-187" value="" style="edgeStyle=orthogonalEdgeStyle;rounded=0;orthogonalLoop=1;jettySize=auto;html=1;" parent="JYMs62lEkPP5SCEeZYxe-147" source="JYMs62lEkPP5SCEeZYxe-169" target="JYMs62lEkPP5SCEeZYxe-153" edge="1">
          <mxGeometry relative="1" as="geometry" />
        </mxCell>
        <mxCell id="JYMs62lEkPP5SCEeZYxe-188" value="" style="edgeStyle=orthogonalEdgeStyle;rounded=0;orthogonalLoop=1;jettySize=auto;html=1;" parent="JYMs62lEkPP5SCEeZYxe-147" source="JYMs62lEkPP5SCEeZYxe-172" target="JYMs62lEkPP5SCEeZYxe-184" edge="1">
          <mxGeometry relative="1" as="geometry" />
        </mxCell>
        <mxCell id="JYMs62lEkPP5SCEeZYxe-189" style="edgeStyle=orthogonalEdgeStyle;rounded=0;orthogonalLoop=1;jettySize=auto;html=1;" parent="JYMs62lEkPP5SCEeZYxe-147" source="JYMs62lEkPP5SCEeZYxe-184" edge="1">
          <mxGeometry relative="1" as="geometry">
            <mxPoint x="1270" y="210" as="targetPoint" />
          </mxGeometry>
        </mxCell>
        <mxCell id="JYMs62lEkPP5SCEeZYxe-195" value="True" style="edgeLabel;html=1;align=center;verticalAlign=middle;resizable=0;points=[];" parent="JYMs62lEkPP5SCEeZYxe-189" vertex="1" connectable="0">
          <mxGeometry x="0.7045" y="2" relative="1" as="geometry">
            <mxPoint x="2" y="-30" as="offset" />
          </mxGeometry>
        </mxCell>
        <mxCell id="JYMs62lEkPP5SCEeZYxe-190" value="" style="edgeStyle=orthogonalEdgeStyle;rounded=0;orthogonalLoop=1;jettySize=auto;html=1;" parent="JYMs62lEkPP5SCEeZYxe-147" source="JYMs62lEkPP5SCEeZYxe-173" target="JYMs62lEkPP5SCEeZYxe-156" edge="1">
          <mxGeometry relative="1" as="geometry" />
        </mxCell>
        <mxCell id="JYMs62lEkPP5SCEeZYxe-191" value="" style="edgeStyle=orthogonalEdgeStyle;rounded=0;orthogonalLoop=1;jettySize=auto;html=1;" parent="JYMs62lEkPP5SCEeZYxe-147" source="JYMs62lEkPP5SCEeZYxe-176" target="JYMs62lEkPP5SCEeZYxe-159" edge="1">
          <mxGeometry relative="1" as="geometry" />
        </mxCell>
        <mxCell id="JYMs62lEkPP5SCEeZYxe-196" value="&lt;font style=&quot;font-size: 72px;&quot;&gt;&lt;b&gt;Get Request&lt;/b&gt;&lt;/font&gt;" style="ellipse;whiteSpace=wrap;html=1;" parent="1" vertex="1">
          <mxGeometry x="705" y="50" width="510" height="270" as="geometry" />
        </mxCell>
        <mxCell id="JYMs62lEkPP5SCEeZYxe-197" value="" style="endArrow=none;html=1;rounded=0;" parent="1" edge="1">
          <mxGeometry width="50" height="50" relative="1" as="geometry">
            <mxPoint x="1360" y="1190" as="sourcePoint" />
            <mxPoint x="1360" y="10" as="targetPoint" />
          </mxGeometry>
        </mxCell>
        <mxCell id="JYMs62lEkPP5SCEeZYxe-198" value="&lt;font style=&quot;font-size: 72px;&quot;&gt;Login/&lt;br&gt;Register&lt;/font&gt;" style="ellipse;whiteSpace=wrap;html=1;" parent="1" vertex="1">
          <mxGeometry x="2920" y="50" width="310" height="740" as="geometry" />
        </mxCell>
      </root>
    </mxGraphModel>
  </diagram>
</mxfile>
